<svg width="47" height="34" viewBox="0 0 47 34" fill="none" xmlns="http://www.w3.org/2000/svg">
<path d="M47 27.328C47 29.1559 46.3421 30.7249 45.0264 32.0349C43.7106 33.345 42.1042 34 40.207 34H6.79297C4.89583 34 3.28939 33.345 1.97363 32.0349C0.657878 30.7249 0 29.1559 0 27.328V6.67204C0 4.84409 0.657878 3.27509 1.97363 1.96505C3.28939 0.655018 4.89583 0 6.79297 0H40.207C42.1042 0 43.7106 0.655018 45.0264 1.96505C46.3421 3.27509 47 4.84409 47 6.67204V27.328ZM7.80273 13.7097H9.08789L8.44531 11.9731L7.80273 13.7097ZM14.7793 19.2849V20.1075H17.0742V20.9301H14.7793V21.8441H17.2578L18.4512 20.5645L17.3496 19.2849H14.7793ZM32.2207 11.9731L31.5781 13.7097H32.9551L32.2207 11.9731ZM21.2969 22.3011V18.9194L19.7363 20.5645L21.2969 22.3011ZM24.2344 19.8333C24.1732 19.4677 23.959 19.2849 23.5918 19.2849H22.3066V20.3817H23.5918C24.0202 20.3817 24.2344 20.1989 24.2344 19.8333ZM28.457 20.2903C28.5794 20.2294 28.6406 20.0771 28.6406 19.8333C28.7018 19.6505 28.6406 19.5287 28.457 19.4677C28.3958 19.4068 28.2428 19.3763 27.998 19.3763H26.8047V20.2903H27.998C28.2428 20.2903 28.3958 20.2903 28.457 20.2903ZM37.1777 10.4194V11.1505L36.8105 10.4194H33.9648V11.1505L33.5977 10.4194H29.7422C29.069 10.4194 28.4876 10.5412 27.998 10.7849V10.4194H25.3359V10.5108V10.7849C25.0299 10.5412 24.6322 10.4194 24.1426 10.4194H14.5039L13.7695 11.8817L13.127 10.4194H10.9238H10.0977V11.1505L9.73047 10.4194H7.06836L5.875 13.2527L4.49805 16.2688V16.3602H7.61914V16.2688L7.98633 15.4462H8.8125L9.17969 16.3602H12.668V16.2688V15.629L12.9434 16.3602H14.6875L14.9629 15.629V16.2688V16.3602H16.4316H23.3164H23.4082V14.8065H23.5C23.5612 14.8065 23.5918 14.8674 23.5918 14.9892V16.2688H27.998V15.9946C28.4876 16.1774 29.0384 16.2688 29.6504 16.2688H31.3945L31.7617 15.3548H32.5879L32.9551 16.2688H36.5352V15.7204V15.4462L36.9941 16.2688H37.1777H39.8398V10.4194H37.1777ZM16.707 15.4462H16.0645H15.6973V15.0806V12.1559V12.3387L14.2285 15.4462H13.8613H13.4023L11.9336 12.1559V15.4462H9.91406L9.45508 14.5323H7.43555L6.97656 15.4462H5.875L7.71094 11.2419H9.17969L10.9238 15.2634V11.2419H11.291H12.4844V11.3333L13.3105 12.9785L13.8613 14.1667L15.0547 11.2419H16.707V15.4462ZM20.8379 12.1559H18.543V12.9785H20.8379V13.8011H18.543V14.6237H20.8379V15.5376H17.4414V11.2419H20.8379V12.1559ZM25.1523 13.7097C25.2135 13.7706 25.2441 13.8011 25.2441 13.8011C25.3665 13.9839 25.4277 14.2276 25.4277 14.5323C25.4277 14.5323 25.4277 14.5475 25.4277 14.578C25.4277 14.6084 25.4277 14.6237 25.4277 14.6237V15.4462H24.5098V14.9892C24.5098 14.5627 24.4486 14.2885 24.3262 14.1667C24.265 14.1057 24.2038 14.06 24.1426 14.0296C24.0814 13.9991 23.8978 13.9839 23.5918 13.9839H22.582V15.4462H21.4805V11.2419H23.7754C24.3874 11.2419 24.8158 11.3029 25.0605 11.4247C25.3665 11.6075 25.5195 11.9122 25.5195 12.3387C25.5195 12.948 25.2747 13.3441 24.7852 13.5269L25.1523 13.7097ZM27.1719 15.4462H26.1621V11.2419H27.1719V15.4462ZM38.9219 15.4462H37.6367L35.709 12.2473V14.8978V15.4462H34.6992H33.6895L33.3223 14.5323H31.2109L30.8438 15.5376H29.6504C29.0384 15.5376 28.5488 15.3853 28.1816 15.0806C27.8145 14.7151 27.6309 14.1667 27.6309 13.4355C27.6309 12.7043 27.8145 12.1254 28.1816 11.6989C28.4876 11.3943 29.0078 11.2419 29.7422 11.2419H30.6602V12.1559H29.7422C29.4362 12.1559 29.1608 12.2473 28.916 12.4301C28.7324 12.6129 28.6406 12.9176 28.6406 13.3441C28.6406 13.8315 28.7324 14.1667 28.916 14.3495C29.0996 14.5323 29.3444 14.6237 29.6504 14.6237H30.1094L31.4863 11.3333H32.1289H32.9551L34.6992 15.3548V15.172V13.8011V13.7097V11.3333H36.168L37.9121 14.2581V11.3333H38.9219V15.4462ZM24.3262 12.9785C24.4486 12.8566 24.4792 12.7043 24.418 12.5215C24.418 12.4606 24.418 12.4301 24.418 12.4301C24.418 12.3692 24.3568 12.3082 24.2344 12.2473C24.1732 12.1864 24.0202 12.1559 23.7754 12.1559H22.582V13.1613H23.7754C24.0202 13.1613 24.1732 13.1308 24.2344 13.0699C24.2344 13.0699 24.265 13.0699 24.3262 13.0699V12.9785ZM42.502 21.4785C42.502 21.052 42.4102 20.6559 42.2266 20.2903V17.6398V17.457H39.2891L38.4629 17.8226V17.457H35.709C35.1582 17.457 34.7604 17.5789 34.5156 17.8226V17.457H29.5586V17.6398V17.8226C29.2526 17.5789 28.7936 17.457 28.1816 17.457H24.9688V17.6398V17.8226C24.724 17.5789 24.265 17.457 23.5918 17.457H19.9199L19.0938 18.371L18.3594 17.457H18.084H17.625H12.8516V17.6398V18.0968V23.4892H18.1758L19.0938 22.6667L19.8281 23.4892H19.9199H22.9492H23.1328H23.2246V22.9409V22.1183H23.5C24.1732 22.1183 24.6322 22.0573 24.877 21.9355V23.4892V23.5806H27.6309V23.4892V22.0269H27.7227C27.8451 22.0269 27.9062 22.0878 27.9062 22.2097V23.4892V23.5806H36.168C36.7799 23.5806 37.2389 23.4588 37.5449 23.2151V23.4892V23.5806H40.1152C40.7884 23.5806 41.278 23.4892 41.584 23.3065C42.1348 22.9409 42.4408 22.3925 42.502 21.6613C42.502 21.6004 42.502 21.5699 42.502 21.5699C42.502 21.5699 42.502 21.5394 42.502 21.4785ZM23.5 21.1129H22.3066V21.2957V21.6613V22.0269V22.6667H20.2871L19.1855 21.3871L19.0938 21.2957L17.8086 22.6667H13.9531V18.4624H17.8086L18.9102 19.6505L19.0938 19.9247L19.1855 19.8333L20.4707 18.4624H23.5918C24.4486 18.4624 24.9993 18.7366 25.2441 19.2849C25.2441 19.4068 25.2441 19.5287 25.2441 19.6505C25.2441 20.6254 24.6628 21.1129 23.5 21.1129ZM29.5586 21.0215C29.681 21.2043 29.7422 21.4785 29.7422 21.8441V22.6667H28.7324V22.1183C28.7324 21.6918 28.6712 21.4176 28.5488 21.2957C28.4264 21.1738 28.1816 21.1129 27.8145 21.1129H26.7129V22.6667H25.7031V18.371H27.998C28.61 18.371 29.0078 18.4319 29.1914 18.5538C29.5586 18.7975 29.7422 19.1326 29.7422 19.5591C29.7422 20.1075 29.4974 20.4731 29.0078 20.6559C29.3138 20.7778 29.4974 20.8996 29.5586 21.0215ZM33.6895 19.2849H31.3945V20.1075H33.6895V20.9301H31.3945V21.7527H33.6895V22.6667H30.293V18.371H33.6895V19.2849ZM36.2598 22.6667H34.332V21.7527H36.2598C36.4434 21.7527 36.5811 21.7222 36.6729 21.6613C36.7646 21.6004 36.8105 21.509 36.8105 21.3871C36.8105 21.2652 36.7646 21.1586 36.6729 21.0672C36.5811 20.9758 36.474 20.9301 36.3516 20.9301C36.2904 20.9301 36.1986 20.9301 36.0762 20.9301C35.6478 20.9301 35.3418 20.8996 35.1582 20.8387C34.9746 20.7778 34.7757 20.6559 34.5615 20.4731C34.3473 20.2903 34.2402 20.0161 34.2402 19.6505C34.2402 18.7975 34.6992 18.371 35.6172 18.371H37.6367V19.3763H35.8008C35.556 19.3763 35.403 19.3916 35.3418 19.422C35.2806 19.4525 35.25 19.5591 35.25 19.7419C35.25 19.8638 35.3112 19.9552 35.4336 20.0161C35.556 20.0771 35.6784 20.1075 35.8008 20.1075H36.3516C36.9023 20.1075 37.3001 20.2294 37.5449 20.4731C37.7285 20.6559 37.8203 20.9606 37.8203 21.3871C37.8203 22.2401 37.3001 22.6667 36.2598 22.6667ZM41.4004 22.3011C41.1556 22.5448 40.7578 22.6667 40.207 22.6667H38.2793V21.7527H40.207C40.3906 21.7527 40.513 21.7222 40.5742 21.6613C40.6354 21.6004 40.666 21.509 40.666 21.3871C40.666 21.2652 40.6354 21.1586 40.5742 21.0672C40.513 20.9758 40.3906 20.9301 40.207 20.9301C40.1458 20.9301 40.0846 20.9301 40.0234 20.9301C39.5951 20.9301 39.2738 20.8996 39.0596 20.8387C38.8454 20.7778 38.6312 20.6559 38.417 20.4731C38.2028 20.2903 38.0957 20.0161 38.0957 19.6505C38.0957 18.9194 38.4935 18.4928 39.2891 18.371C39.3503 18.371 39.4421 18.371 39.5645 18.371H41.584V19.3763H40.207H39.748H39.6562C39.4727 19.3763 39.3503 19.4068 39.2891 19.4677C39.1667 19.5287 39.1055 19.6201 39.1055 19.7419C39.1055 19.8638 39.1973 19.9552 39.3809 20.0161C39.4421 20.0771 39.5645 20.1075 39.748 20.1075H39.8398H40.2988C40.5436 20.1075 40.7578 20.138 40.9414 20.1989C41.431 20.3817 41.7064 20.6864 41.7676 21.1129C41.7676 21.2348 41.7676 21.3262 41.7676 21.3871C41.7676 21.7527 41.6452 22.0573 41.4004 22.3011Z" fill="#765B64"/>
</svg>
