<svg width="40" height="30" viewBox="0 0 40 30" fill="none" xmlns="http://www.w3.org/2000/svg">
<path d="M36.6406 28.3594H3.35938C2.89062 28.3594 2.48698 28.1901 2.14844 27.8516C1.8099 27.513 1.64062 27.1094 1.64062 26.6406V3.35938C1.64062 2.89062 1.8099 2.48698 2.14844 2.14844C2.48698 1.8099 2.89062 1.64062 3.35938 1.64062H36.6406C37.1094 1.64062 37.513 1.8099 37.8516 2.14844C38.1901 2.48698 38.3594 2.89062 38.3594 3.35938V26.6406C38.3594 27.1094 38.1901 27.513 37.8516 27.8516C37.513 28.1901 37.1094 28.3594 36.6406 28.3594ZM36.6406 30C37.5781 30 38.3724 29.6745 39.0234 29.0234C39.6745 28.3724 40 27.5781 40 26.6406V3.35938C40 2.42188 39.6745 1.6276 39.0234 0.976562C38.3724 0.325521 37.5781 0 36.6406 0H3.35938C2.42188 0 1.6276 0.325521 0.976562 0.976562C0.325521 1.6276 0 2.42188 0 3.35938V26.6406C0 27.5781 0.325521 28.3724 0.976562 29.0234C1.6276 29.6745 2.42188 30 3.35938 30H36.6406ZM21.3281 12.3438C22.0573 12.3438 22.6562 12.5781 23.125 13.0469C23.5938 13.5156 23.8281 14.1276 23.8281 14.8828C23.8281 15.638 23.5938 16.25 23.125 16.7188C22.6562 17.1875 22.0312 17.4219 21.25 17.4219H19.5312V20H18.3594V12.3438H21.3281ZM19.5312 16.4062H21.0156C22.1094 16.4062 22.6562 15.8984 22.6562 14.8828C22.6562 13.8672 22.1094 13.3594 21.0156 13.3594H19.5312V16.4062ZM24.0625 18.3594C24.0625 17.3177 24.7917 16.7708 26.25 16.7188L27.8125 16.5625V16.1719C27.8125 15.4948 27.4219 15.1562 26.6406 15.1562C25.9635 15.1562 25.5729 15.4167 25.4688 15.9375H24.375C24.375 15.4167 24.5964 15 25.0391 14.6875C25.4818 14.375 26.0156 14.2188 26.6406 14.2188C27.3177 14.2188 27.8646 14.388 28.2812 14.7266C28.6979 15.0651 28.9062 15.5208 28.9062 16.0938V20H27.8906V19.0625H27.8125C27.5 19.7396 26.901 20.0781 26.0156 20.0781C25.4427 20.0781 24.974 19.9219 24.6094 19.6094C24.2448 19.2969 24.0625 18.8802 24.0625 18.3594ZM27.8125 17.8125V17.4219L26.4062 17.5C25.625 17.5521 25.2344 17.8385 25.2344 18.3594C25.2344 18.8802 25.599 19.1406 26.3281 19.1406C26.7448 19.1406 27.0964 19.0234 27.3828 18.7891C27.6693 18.5547 27.8125 18.2292 27.8125 17.8125ZM30.1562 22.0312V21.0938C30.2604 21.1458 30.3906 21.1719 30.5469 21.1719C31.0677 21.1719 31.4062 20.8854 31.5625 20.3125L31.6406 20L29.6094 14.2188H30.8594L32.2656 18.9062H32.3438L33.8281 14.2188H35L32.8906 20.2344C32.6302 20.9115 32.3438 21.3932 32.0312 21.6797C31.7188 21.9661 31.25 22.1094 30.625 22.1094C30.5729 22.1094 30.4167 22.0833 30.1562 22.0312ZM14.0625 15.3906C14.0625 16.0156 14.2318 16.5495 14.5703 16.9922C14.9089 17.4349 15.1693 17.7214 15.3516 17.8516C15.5339 17.9818 15.7031 18.0729 15.8594 18.125C15.651 18.8021 15.3385 19.4271 14.9219 20C14.1927 21.0938 13.5156 21.6406 12.8906 21.6406C12.5781 21.6406 12.2266 21.5495 11.8359 21.3672C11.4453 21.1849 11.0677 21.0938 10.7031 21.0938C10.3385 21.0938 9.94792 21.1849 9.53125 21.3672C9.11458 21.5495 8.77604 21.6406 8.51562 21.6406C7.89062 21.6927 7.1875 21.1458 6.40625 20C5.72917 19.0625 5.28646 17.9818 5.07812 16.7578C4.86979 15.5339 5.02604 14.375 5.54688 13.2812C6.17188 12.1875 7.08333 11.6146 8.28125 11.5625C8.64583 11.5625 9.07552 11.6667 9.57031 11.875C10.0651 12.0833 10.3906 12.1875 10.5469 12.1875C10.651 12.1875 11.0026 12.0703 11.6016 11.8359C12.2005 11.6016 12.6823 11.5104 13.0469 11.5625C14.1406 11.6146 14.974 12.0573 15.5469 12.8906C14.5573 13.4635 14.0625 14.2969 14.0625 15.3906ZM12.4219 10.4688C11.849 11.1458 11.1719 11.4583 10.3906 11.4062C10.2865 10.6771 10.5208 10 11.0938 9.375C11.6667 8.69792 12.3177 8.35938 13.0469 8.35938C13.151 9.08854 12.9427 9.79167 12.4219 10.4688Z" fill="#765B64"/>
</svg>
