<svg width="47" height="36" viewBox="0 0 47 36" fill="none" xmlns="http://www.w3.org/2000/svg">
<path d="M19.3164 14.6147C21.0664 15.6605 23.0352 16.1009 25.2227 15.9358L28.75 17.9174L17.5938 24.3578L2.5 15.6055L13.5742 9.16514L17.1016 11.2294C16.8281 12.4954 17.5664 13.6239 19.3164 14.6147ZM2.5 17.9174L17.5938 26.7523L28.75 20.2294V22.0459L17.5938 28.4862L2.5 19.7339V17.9174ZM2.5 21.7156L17.5938 30.4679L28.75 23.945V25.7615L17.5938 32.2844L2.5 23.5321V21.7156ZM2.5 25.4312L17.5938 34.1835L28.75 27.7431V29.5596L17.5938 36L2.5 27.2477V25.4312ZM35.3125 14.1193V14.0367L20.2188 5.2844L29.4062 0L44.5 8.75229L35.3125 14.1193ZM14.5586 8.66972L19.2344 5.94495L34.3281 14.6972V26.3394L29.7344 28.9817V17.3394L14.5586 8.66972ZM35.3125 21.9633V20.1468L44.5 14.7798V16.5963L35.3125 21.9633ZM35.3125 18.2477V16.4312L44.5 11.0642V12.8807L35.3125 18.2477ZM35.3125 25.6789V23.945L44.5 18.578V20.3945L35.3125 25.6789Z" fill="#765B64"/>
</svg>
