<svg width="76" height="101" viewBox="0 0 76 101" fill="none" xmlns="http://www.w3.org/2000/svg">
<path d="M6.33333 44.1216C5.40972 44.1216 4.65104 43.7605 4.05729 43.0383C3.46354 42.316 3.16667 41.6266 3.16667 40.9701C3.82639 32.8286 7.48785 26.0659 14.151 20.682C20.8142 15.2981 28.7639 12.6062 38 12.6062C47.2361 12.6062 55.1858 15.2981 61.849 20.682C68.5122 26.0659 72.1736 32.8286 72.8333 40.9701C72.8333 41.6266 72.5365 42.316 71.9427 43.0383C71.349 43.7605 70.5903 44.1216 69.6667 44.1216H6.33333ZM36.2188 15.7577C29.4896 16.1517 23.5851 18.0557 18.5052 21.4699C13.4253 24.8841 9.89583 29.2174 7.91667 34.47C7.78472 35.3892 8.18056 35.9145 9.10417 36.0458C10.1597 36.0458 10.8854 35.5205 11.2812 34.47C13.2604 30.0053 16.4931 26.3942 20.9792 23.6366C25.4653 20.879 30.5451 19.3032 36.2188 18.9093C37.0104 18.9093 37.5382 18.6466 37.8021 18.1214C38.066 17.5961 38.033 17.0709 37.7031 16.5456C37.3733 16.0203 36.8785 15.7577 36.2188 15.7577ZM16.8229 85.4856L25.7292 93.3645C27.0486 94.415 27.1146 95.5311 25.9271 96.713L22.7604 100.061C21.7049 101.243 20.5833 101.309 19.3958 100.258L10.2917 92.3796C9.10417 91.4604 9.03819 90.4099 10.0938 89.2281L13.4583 85.6826C14.5139 84.6321 15.6354 84.5664 16.8229 85.4856ZM42.4531 5.41672C42.4531 5.41672 42.1398 5.56445 41.513 5.8599C40.8863 6.15536 39.7153 6.30309 38 6.30309C36.2847 6.30309 34.8003 6.00763 33.5469 5.41672C32.2934 4.82581 31.6667 4.07074 31.6667 3.15154C31.6667 2.23235 32.2934 1.47729 33.5469 0.886375C34.8003 0.295464 36.2847 0 38 0C39.7153 0 41.1997 0.295464 42.4531 0.886375C43.7066 1.47729 44.3333 2.23235 44.3333 3.15154C44.3333 4.07074 43.7066 4.82581 42.4531 5.41672ZM72.8333 47.2731C73.757 47.2731 74.5156 47.5686 75.1094 48.1595C75.7031 48.7504 76 49.5055 76 50.4247C76 51.3439 75.7031 52.0989 75.1094 52.6899C74.5156 53.2808 73.757 53.5762 72.8333 53.5762H3.16667C2.24306 53.5762 1.48438 53.2808 0.890625 52.6899C0.296875 52.0989 0 51.3439 0 50.4247C0 49.5055 0.296875 48.7504 0.890625 48.1595C1.48438 47.5686 2.24306 47.2731 3.16667 47.2731H72.8333ZM52.8438 61.6521C54.4271 60.6015 56.2743 60.0106 58.3854 59.8793C60.4965 59.748 62.0139 60.4046 62.9375 61.849C63.5972 62.7682 63.2014 63.6218 61.75 64.4097C61.6181 64.541 61.1892 64.7051 60.4635 64.9021C59.7379 65.0991 58.7812 65.4273 57.5938 65.8869C56.4062 66.3465 55.0868 67.0359 53.6354 67.9551C52.184 68.8743 50.4688 70.3188 48.4896 72.2885C46.5104 74.2582 44.5313 76.5562 42.5521 79.1825C41.2326 80.8896 38.9236 83.0563 35.625 85.6826C35.0972 85.9452 34.1076 87.0614 32.6562 89.0311C31.4688 89.819 29.7535 89.5235 27.5104 88.1447C25.2674 86.7659 23.3872 85.026 21.8698 82.925C20.3524 80.8239 19.9896 79.4451 20.7812 78.7886C21.5729 77.8694 22.1667 77.0815 22.5625 76.4249C24.2778 71.9602 23.684 68.2178 20.7812 65.1975C20.2535 64.8036 19.1979 64.147 17.6146 63.2278C16.9549 62.9652 16.724 62.4071 16.9219 61.5536C17.1198 60.7 17.8785 60.2076 19.1979 60.0763C19.9896 59.945 20.8472 60.0763 21.7708 60.4702C24.4097 61.7834 27.2465 63.9501 30.2812 66.9703C32.9201 69.5966 36.0868 70.1218 39.7812 68.5461C41.1007 68.0208 43.3438 66.8718 46.5104 65.0991C49.6771 63.3263 51.7882 62.1773 52.8438 61.6521Z" fill="#D03970"/>
</svg>
