<svg width="37" height="37" viewBox="0 0 37 37" fill="none" xmlns="http://www.w3.org/2000/svg">
<path d="M5.61535 5.33904C5.61535 5.33904 6.50518 4.44921 8.28484 2.66954C10.0645 0.889885 13.4696 5.34058e-05 18.5001 5.34058e-05C23.5306 5.34058e-05 27.8255 1.77971 31.3848 5.33904C34.9442 8.89836 36.7238 13.1933 36.7238 18.2238C36.7238 23.2543 34.9442 27.5492 31.3848 31.1085C27.8255 34.6678 23.5306 36.4475 18.5001 36.4475C13.4696 36.4475 9.17467 34.6678 5.61535 31.1085C2.05603 27.5492 0.276367 23.2543 0.276367 18.2238C0.276367 13.1933 2.05603 8.89836 5.61535 5.33904ZM11.4526 21.8899C11.4526 21.8899 11.4526 21.9789 11.4526 22.1568C11.4526 22.3348 11.5831 22.5424 11.8442 22.7797C12.1052 23.017 12.4255 23.1356 12.8052 23.1356C13.1848 23.1356 13.4933 23.017 13.7306 22.7797C15.012 21.4984 15.6526 19.9797 15.6526 18.2238C15.6526 16.4678 15.012 14.9492 13.7306 13.6679C13.4933 13.4306 13.1848 13.3119 12.8052 13.3119C12.4255 13.3119 12.1052 13.4306 11.8442 13.6679C11.5831 13.9051 11.4526 14.2017 11.4526 14.5577C11.4526 14.9136 11.595 15.234 11.8798 15.5187C12.6865 16.278 13.0899 17.1797 13.0899 18.2238C13.0899 19.2678 12.6865 20.1695 11.8798 20.9289C11.595 21.2136 11.4526 21.534 11.4526 21.8899ZM17.2899 26.2678C19.5204 24.0373 20.6357 21.356 20.6357 18.2238C20.6357 15.0916 19.5204 12.4102 17.2899 10.1797C17.0052 9.89497 16.6848 9.7526 16.3289 9.7526C15.973 9.7526 15.6526 9.8831 15.3679 10.1441C15.0831 10.4051 14.9408 10.7255 14.9408 11.1051C14.9408 11.4848 15.0831 11.817 15.3679 12.1017C17.1238 13.8577 18.0018 15.8984 18.0018 18.2238C18.0018 20.5492 17.1238 22.5899 15.3679 24.3458C15.0831 24.5831 14.9408 24.8916 14.9408 25.2712C14.9408 25.6509 15.0831 25.9831 15.3679 26.2678C15.6526 26.5526 15.973 26.695 16.3289 26.695C16.6848 26.695 17.0052 26.5526 17.2899 26.2678ZM21.2764 29.1153C24.1238 26.1255 25.5476 22.495 25.5476 18.2238C25.5476 13.9526 24.1238 10.3221 21.2764 7.33226C21.0391 7.09497 20.7543 6.97632 20.4221 6.97632C20.0899 6.97632 19.8052 7.09497 19.5679 7.33226C19.3306 7.56954 19.212 7.87802 19.212 8.25768C19.212 8.63734 19.3306 8.94582 19.5679 9.1831C21.7984 11.6034 22.9137 14.617 22.9137 18.2238C22.9137 21.8306 21.7984 24.8441 19.5679 27.2645C19.3306 27.5017 19.212 27.8102 19.212 28.1899C19.212 28.5695 19.3306 28.878 19.5679 29.1153C19.8052 29.3526 20.0899 29.4712 20.4221 29.4712C20.7543 29.4712 21.0391 29.3526 21.2764 29.1153Z" fill="#765B64"/>
</svg>
