<svg width="33" height="32" viewBox="0 0 33 32" fill="none" xmlns="http://www.w3.org/2000/svg">
<path d="M6.93556 13.8489C9.49556 18.88 13.62 22.9867 18.6511 25.5644L22.5622 21.6533C23.0422 21.1733 23.7533 21.0133 24.3756 21.2267C26.3667 21.8844 28.5178 22.24 30.7222 22.24C31.7 22.24 32.5 23.04 32.5 24.0178V30.2222C32.5 31.2 31.7 32 30.7222 32C14.0289 32 0.5 18.4711 0.5 1.77778C0.5 0.8 1.3 0 2.27778 0H8.5C9.47778 0 10.2778 0.8 10.2778 1.77778C10.2778 4 10.6333 6.13333 11.2911 8.12444C11.4867 8.74667 11.3444 9.44 10.8467 9.93778L6.93556 13.8489Z" fill="#D03970"/>
</svg>
