<svg width="36" height="27" viewBox="0 0 36 27" fill="none" xmlns="http://www.w3.org/2000/svg">
<path d="M15.0598 9.76596C15.5378 9.76596 15.9442 9.95745 16.2789 10.3404C16.4701 10.5798 16.5896 10.9388 16.6374 11.4176H13.4104C13.4104 10.9388 13.5657 10.5439 13.8765 10.2327C14.1873 9.92154 14.5817 9.76596 15.0598 9.76596ZM32.6295 0C33.5378 0 34.3267 0.323137 34.996 0.969414C35.6653 1.61569 36 2.41755 36 3.375V23.625C36 24.5824 35.6653 25.3843 34.996 26.0306C34.3267 26.6769 33.5378 27 32.6295 27H3.37052C2.46215 27 1.67331 26.6769 1.00398 26.0306C0.334661 25.3843 0 24.5824 0 23.625V3.375C0 2.41755 0.334661 1.61569 1.00398 0.969414C1.67331 0.323137 2.46215 0 3.37052 0H32.6295ZM33.7052 23.625H33.7769V18.0239H2.29482V23.625C2.29482 23.9122 2.40239 24.1755 2.61753 24.4149C2.83267 24.6543 3.08367 24.7739 3.37052 24.7739H32.6295C32.9163 24.7739 33.1673 24.6543 33.3825 24.4149C33.5976 24.1755 33.7052 23.9122 33.7052 23.625ZM8.53386 15.0798C9.25099 15.0798 9.8008 14.7926 10.1833 14.2181V14.9362H11.0438V6.82181H10.1116V9.76596C9.92032 9.5266 9.69323 9.32314 9.43028 9.15558C9.16733 8.98803 8.84462 8.90425 8.46215 8.90425C7.98406 8.90425 7.55378 9.0359 7.17131 9.2992C6.78884 9.5625 6.50199 9.93351 6.31076 10.4122C6.11952 10.891 6.0239 11.4176 6.0239 11.992C6.0239 12.5665 6.13147 13.0931 6.34661 13.5718C6.56175 14.0505 6.86056 14.4215 7.24303 14.6848C7.6255 14.9481 8.05578 15.0798 8.53386 15.0798ZM15.1315 14.2181C14.6056 14.2181 14.1873 14.0505 13.8765 13.7154C13.5657 13.3803 13.3865 12.8777 13.3386 12.2074H17.7131C17.7131 12.1596 17.7131 12.0878 17.7131 11.992C17.7131 11.0346 17.4622 10.2806 16.9602 9.73005C16.4582 9.17952 15.8247 8.90425 15.0598 8.90425C14.247 8.90425 13.5896 9.17952 13.0876 9.73005C12.5857 10.2806 12.3347 11.0585 12.3347 12.0638C12.3347 12.9734 12.5737 13.7035 13.0518 14.254C13.5299 14.8045 14.1992 15.0798 15.0598 15.0798C15.7769 15.0798 16.3506 14.9122 16.7809 14.5771C17.2112 14.242 17.498 13.7633 17.6414 13.141L16.6374 12.9973C16.494 13.4282 16.2908 13.7394 16.0279 13.9309C15.7649 14.1223 15.4661 14.2181 15.1315 14.2181ZM21.5139 8.90425C20.8446 8.90425 20.2948 9.16755 19.8645 9.69415V6.82181H18.9323V14.9362H19.7928V14.2181C20.2231 14.7926 20.7849 15.0798 21.4781 15.0798C22.1713 15.0798 22.757 14.8045 23.2351 14.254C23.7131 13.7035 23.9522 12.9255 23.9522 11.9202C23.9522 11.4894 23.8924 11.0824 23.7729 10.6995C23.6534 10.3165 23.498 9.99335 23.3068 9.73005C23.1155 9.46675 22.8526 9.2633 22.5179 9.11968C22.1833 8.97606 21.8486 8.90425 21.5139 8.90425ZM26.1753 9.04787H25.1713V14.9362H26.1753V9.04787ZM25.1713 7.97075H26.1753V6.82181H25.1713V7.97075ZM29.8327 9.04787H28.8287V7.03724L27.8247 7.6117V9.04787H27.1076V9.83776H27.8247V13.2128C27.8247 13.7872 27.8725 14.1702 27.9681 14.3617C28.0637 14.5532 28.2072 14.7088 28.3984 14.8285C28.5896 14.9481 28.8765 15.008 29.259 15.008C29.4502 15.008 29.6892 14.984 29.9761 14.9362L29.8327 14.0027C29.6414 14.0505 29.498 14.0745 29.4024 14.0745C29.259 14.0745 29.1514 14.0505 29.0797 14.0027C29.008 13.9548 28.9482 13.883 28.9004 13.7872C28.8526 13.6915 28.8287 13.5239 28.8287 13.2846V9.83776H29.8327V9.04787ZM33.7052 4.52394L33.7769 3.375C33.7769 3.08777 33.6574 2.82447 33.4183 2.58511C33.1793 2.34575 32.9163 2.22606 32.6295 2.22606H3.37052C3.08367 2.22606 2.83267 2.34575 2.61753 2.58511C2.40239 2.82447 2.29482 3.08777 2.29482 3.375V4.52394H33.7052ZM20.0797 13.5C19.8884 13.1649 19.7928 12.6503 19.7928 11.9561C19.7928 11.262 19.9482 10.7234 20.259 10.3404C20.5697 9.95745 20.9402 9.76596 21.3705 9.76596C21.8008 9.76596 22.1713 9.94548 22.4821 10.3045C22.7928 10.6636 22.9482 11.2261 22.9482 11.992C22.9482 12.7101 22.7928 13.2606 22.4821 13.6436C22.1713 14.0266 21.8008 14.2181 21.3705 14.2181C20.8446 14.2181 20.4143 13.9787 20.0797 13.5ZM8.60558 9.76596C9.03586 9.76596 9.40637 9.94548 9.71713 10.3045C10.0279 10.6636 10.1833 11.25 10.1833 12.0638C10.1833 12.7819 10.0279 13.3205 9.71713 13.6795C9.40637 14.0386 9.03586 14.2181 8.60558 14.2181C8.1753 14.2181 7.80478 14.0386 7.49402 13.6795C7.18327 13.3205 7.02789 12.758 7.02789 11.992C7.02789 11.2261 7.17131 10.6636 7.45817 10.3045C7.74502 9.94548 8.12749 9.76596 8.60558 9.76596Z" fill="#765B64"/>
</svg>
