<svg width="44" height="32" viewBox="0 0 44 32" fill="none" xmlns="http://www.w3.org/2000/svg">
<path d="M44 25.7204C44 27.4409 43.3841 28.9176 42.1523 30.1505C40.9206 31.3835 39.4167 32 37.6406 32H6.35938C4.58333 32 3.07943 31.3835 1.84766 30.1505C0.615885 28.9176 0 27.4409 0 25.7204V6.27957C0 4.55914 0.615885 3.08244 1.84766 1.84946C3.07943 0.616488 4.58333 0 6.35938 0H37.6406C39.4167 0 40.9206 0.616488 42.1523 1.84946C43.3841 3.08244 44 4.55914 44 6.27957V25.7204ZM33.5156 25.0323V17.7204H28.2734V21.3333C28.0443 21.3333 27.7865 21.3333 27.5 21.3333C27.099 21.3333 26.8984 21.1613 26.8984 20.8172C26.8984 20.8172 26.8984 20.5018 26.8984 19.871C26.8984 19.2401 26.8984 18.4946 26.8984 17.6344C26.8984 16.7742 26.8984 15.8853 26.8984 14.9677C26.8984 14.0502 26.8984 13.2473 26.8984 12.5591C26.8984 11.871 26.8984 11.4695 26.8984 11.3548C26.8984 10.9534 27.099 10.7527 27.5 10.7527H28.2734V14.1075H33.5156V6.96774C27.5573 6.96774 24.349 6.96774 23.8906 6.96774C23.5469 6.96774 23.1888 7.13979 22.8164 7.48387C22.444 7.82796 22.2865 8.11469 22.3438 8.34409C22.3438 8.34409 22.3438 13.448 22.3438 23.6559C22.3438 23.9427 22.4727 24.2437 22.7305 24.5591C22.9883 24.8746 23.2891 25.0323 23.6328 25.0323H33.5156ZM12.0312 6.96774C11.5729 6.96774 11.2005 7.15412 10.9141 7.52688C10.6276 7.89964 10.4844 8.17204 10.4844 8.34409V23.4839C10.5417 23.8853 10.6849 24.2151 10.9141 24.4731C11.1432 24.7312 11.3724 24.8889 11.6016 24.9462L11.9453 25.0323H20.9688V18.6667H16.4141V21.3333H15.6406C15.526 21.3333 15.4115 21.2903 15.2969 21.2043C15.1823 21.1183 15.0964 21.0323 15.0391 20.9462C14.9818 20.8602 14.9531 20.8172 14.9531 20.8172V17.6344L20.9688 17.7204V6.96774C15.6979 6.96774 12.7188 6.96774 12.0312 6.96774ZM16.4141 10.7527V14.1075H14.9531V11.2688C14.9531 11.1541 15.0247 11.0394 15.168 10.9247C15.3112 10.81 15.4688 10.724 15.6406 10.6667L16.4141 10.7527Z" fill="#765B64"/>
</svg>
