<svg width="25" height="34" viewBox="0 0 25 34" fill="none" xmlns="http://www.w3.org/2000/svg">
<path d="M12.5 16.15C11.3634 16.15 10.2733 15.7022 9.46954 14.9052C8.66582 14.1082 8.21429 13.0272 8.21429 11.9C8.21429 10.7728 8.66582 9.69183 9.46954 8.8948C10.2733 8.09777 11.3634 7.65 12.5 7.65C13.6366 7.65 14.7267 8.09777 15.5305 8.8948C16.3342 9.69183 16.7857 10.7728 16.7857 11.9C16.7857 12.4581 16.6749 13.0108 16.4595 13.5264C16.2441 14.042 15.9284 14.5106 15.5305 14.9052C15.1325 15.2999 14.66 15.6129 14.1401 15.8265C13.6201 16.0401 13.0628 16.15 12.5 16.15ZM12.5 0C9.3174 0 6.26515 1.25375 4.01472 3.48543C1.76428 5.71711 0.5 8.74392 0.5 11.9C0.5 20.825 12.5 34 12.5 34C12.5 34 24.5 20.825 24.5 11.9C24.5 8.74392 23.2357 5.71711 20.9853 3.48543C18.7348 1.25375 15.6826 0 12.5 0Z" fill="#D03970"/>
</svg>
