<svg width="50" height="32" viewBox="0 0 50 32" fill="none" xmlns="http://www.w3.org/2000/svg">
<path d="M1.08566 0.721073C1.08566 0.721073 1.15073 0.63987 1.28088 0.477467C1.41102 0.315063 1.57371 0.185141 1.76892 0.087698C1.96414 -0.00974274 9.77291 -0.0259857 25.1952 0.0389767H48.2311L48.6215 0.331305C48.8818 0.526188 49.077 0.786034 49.2072 1.11084L49.5 1.59805V16.1169L49.4024 30.6358L49.1096 31.123C48.9143 31.3829 48.6541 31.6102 48.3287 31.8051L47.8406 32H25C9.77291 32 2.02922 31.9675 1.76892 31.9026C1.31341 31.6427 0.988048 31.2854 0.792829 30.8307L0.5 30.4409V16.2144C0.5 6.66504 0.532537 1.7767 0.59761 1.54933C0.662683 1.32197 0.825365 1.04588 1.08566 0.721073ZM18.6554 4.91109C17.1587 4.45635 15.662 4.35891 14.1653 4.61876C12.3433 4.8786 10.6677 5.5607 9.13845 6.66504C7.60923 7.76939 6.42165 9.16606 5.5757 10.8551C4.79482 12.4141 4.40438 14.1356 4.40438 16.0195C4.40438 17.2538 4.50199 18.1957 4.69721 18.8453C5.2178 20.6642 6.11255 22.272 7.38147 23.6687C8.6504 25.0654 10.1633 26.0885 11.9203 26.7381C13.8725 27.5177 15.906 27.6801 18.0209 27.2253C20.1358 26.7706 21.9741 25.8287 23.5359 24.3995C23.9914 24.0097 24.2191 23.7824 24.2191 23.7174C24.2191 23.6525 24.089 23.62 23.8287 23.62C23.6985 23.62 23.6172 23.6037 23.5847 23.5713C23.5521 23.5388 23.5359 23.4251 23.5359 23.2302V22.8404H26.9522H30.4661V23.2302V23.62H27.7331C25.911 23.62 25 23.6525 25 23.7174C25 23.9773 25.7483 24.5944 27.245 25.5688C30.0432 27.4527 33.1179 27.9399 36.4691 27.0305C39.8204 26.121 42.2444 24.1072 43.741 20.989C44.9774 18.5205 45.254 15.9383 44.5707 13.2424C43.8875 10.5465 42.407 8.35404 40.1295 6.66504C39.2185 6.01543 38.1448 5.46326 36.9084 5.00853C34.8911 4.35891 32.825 4.29395 30.7102 4.81364C28.5953 5.33333 26.7895 6.37272 25.2928 7.93179L24.6096 8.61389L23.8287 7.73691C22.332 6.37272 20.6076 5.43078 18.6554 4.91109ZM23.5359 9.49087V9.19854H26.9522H30.4661V9.49087V9.88063H26.9522H23.5359V9.49087ZM22.755 10.9525V10.6602H26.2689H29.6853V10.9525V11.3423H26.2689H22.755V10.9525ZM21.9741 12.5116L21.8765 12.2192H25.3904H29.002V12.609V12.9013H25.488H21.9741V12.5116ZM8.99203 15.6297L9.38247 12.8039H10.5538C11.3347 12.8039 11.7576 12.8689 11.8227 12.9988C11.8227 13.1287 11.8878 13.7134 12.0179 14.7527C12.1481 15.7921 12.2457 16.2793 12.3108 16.2144C12.3108 16.2144 12.5385 15.6297 12.994 14.4604L13.5797 12.8039H14.751C15.5969 12.8039 16.0199 12.8689 16.0199 12.9988C16.0199 13.5185 15.7922 15.3049 15.3367 18.3581L15.239 18.7479H14.5558C14.0352 18.7479 13.7749 18.7154 13.7749 18.6504C13.7749 18.5855 13.8725 17.9034 14.0677 16.6041C14.1979 15.24 14.2629 14.5579 14.2629 14.5579C14.2629 14.5579 14.1816 14.7527 14.0189 15.1425C13.8562 15.5323 13.6773 16.0195 13.4821 16.6041L12.6036 18.6504L11.9203 18.7479C11.4648 18.7479 11.2371 18.7154 11.2371 18.6504C11.2371 18.4555 11.1557 17.741 10.993 16.5067C10.8303 15.2724 10.7165 14.6228 10.6514 14.5579C10.6514 14.5579 10.6351 14.6553 10.6026 14.8502C10.5701 15.0451 10.5375 15.2887 10.505 15.581C10.4724 15.8733 10.4236 16.2144 10.3586 16.6041L10.1633 18.6504L9.38247 18.7479C8.86189 18.7479 8.60159 18.6829 8.60159 18.553C8.66667 18.4231 8.79681 17.4486 8.99203 15.6297ZM31.7351 13.2911C31.8652 13.2261 31.9954 13.1612 32.1255 13.0962C32.2556 13.0313 32.3533 12.9663 32.4183 12.9013C32.4834 12.8364 32.5322 12.8039 32.5647 12.8039C32.5973 12.8039 32.6135 12.8526 32.6135 12.9501C32.6135 13.0475 32.5973 13.1449 32.5647 13.2424C32.5322 13.3398 32.5159 13.486 32.5159 13.6809L32.4183 14.4604H32.9064H33.2968V14.9476C33.2317 15.3374 33.1667 15.5648 33.1016 15.6297C33.0365 15.6947 32.9064 15.7272 32.7112 15.7272C32.3858 15.7272 32.2231 15.8246 32.2231 16.0195C32.158 16.2793 32.1255 16.6041 32.1255 16.9939V17.676H32.5159H32.8088V18.1632C32.8088 18.553 32.7437 18.7479 32.6135 18.7479C32.5485 18.8128 32.2719 18.8453 31.7839 18.8453C31.2958 18.8453 30.9867 18.8128 30.8566 18.7479C30.4661 18.553 30.336 17.9683 30.4661 16.9939C30.5312 16.3443 30.5637 15.9708 30.5637 15.8733C30.5637 15.7759 30.4661 15.7272 30.2709 15.7272C30.0757 15.7272 30.0106 15.4673 30.0757 14.9476C30.1408 14.6228 30.2709 14.4604 30.4661 14.4604C30.6614 14.4604 30.7752 14.3305 30.8078 14.0706C30.8403 13.8108 31.1494 13.551 31.7351 13.2911ZM17.6793 14.4604C18.2649 14.3305 18.9482 14.3305 19.7291 14.4604C19.9243 14.5254 20.1195 14.6715 20.3147 14.8989C20.51 15.1263 20.575 15.5972 20.51 16.3118C20.4449 17.1563 20.4124 17.741 20.4124 18.0658V18.7479H19.6315C19.1109 18.7479 18.8343 18.6829 18.8018 18.553C18.7693 18.4231 18.5903 18.4393 18.2649 18.6017C17.9396 18.7641 17.5166 18.8453 16.996 18.8453C16.4754 18.8453 16.1175 18.7479 15.9223 18.553C15.4668 18.0333 15.4668 17.5136 15.9223 16.9939C16.1826 16.7341 16.8984 16.4417 18.0697 16.1169C18.5903 15.987 18.8506 15.8408 18.8506 15.6784C18.8506 15.516 18.7042 15.4186 18.4114 15.3861C18.1185 15.3536 17.8908 15.4186 17.7281 15.581C17.5654 15.7434 17.2563 15.8246 16.8008 15.8246C16.2802 15.7596 16.0199 15.7109 16.0199 15.6784C16.0199 15.646 16.085 15.4998 16.2151 15.24C16.5405 14.7852 17.0286 14.5254 17.6793 14.4604ZM18.8506 16.9939C18.8506 16.864 18.8181 16.799 18.753 16.799C18.6879 16.799 18.4602 16.864 18.0697 16.9939C17.4841 17.1888 17.2238 17.4486 17.2888 17.7734C17.419 17.9034 17.5979 17.9683 17.8257 17.9683C18.0535 17.9683 18.2812 17.8546 18.509 17.6273C18.7367 17.3999 18.8506 17.1888 18.8506 16.9939ZM22.8526 14.4604C23.8938 14.2655 24.6746 14.4604 25.1952 15.0451C25.5206 15.3699 25.6507 15.8571 25.5857 16.5067V16.9939H23.9263L22.1693 17.0914L22.2669 17.2862C22.4622 17.9359 22.8851 18.0658 23.5359 17.676C23.7311 17.611 24.0564 17.5786 24.512 17.5786C24.9675 17.6435 25.3579 17.6435 25.6833 17.5786C26.3991 17.4486 26.8871 17.5136 27.1474 17.7734C27.4077 18.0983 27.7331 18.1307 28.1235 17.8709C28.5139 17.5461 28.2862 17.2862 27.4402 17.0914C27.3101 17.0914 27.1799 17.0589 27.0498 16.9939C26.2689 16.864 25.846 16.5392 25.7809 16.0195C25.7158 15.4348 25.9761 14.9801 26.5618 14.6553C26.8871 14.4604 27.3752 14.363 28.0259 14.363C28.9369 14.363 29.5226 14.5579 29.7829 14.9476C29.913 15.2075 29.9456 15.3699 29.8805 15.4348C29.8154 15.4998 29.5877 15.5648 29.1972 15.6297C28.7417 15.6297 28.4489 15.5648 28.3187 15.4348C28.1886 15.3049 28.0096 15.24 27.7819 15.24C27.5541 15.24 27.4077 15.3049 27.3426 15.4348C27.1474 15.6297 27.2776 15.7921 27.7331 15.922C27.8632 15.922 28.0259 15.9545 28.2211 16.0195C29.0671 16.1494 29.5877 16.4093 29.7829 16.799C30.0432 17.3837 29.913 17.9034 29.3924 18.3581C28.9369 18.6829 28.2537 18.8453 27.3426 18.8453C26.3015 18.8453 25.6833 18.6179 25.488 18.1632C25.423 17.9034 25.3742 17.7734 25.3416 17.7734C25.3091 17.7734 25.1952 17.8709 25 18.0658C24.6096 18.5855 23.8938 18.8453 22.8526 18.8453C22.0066 18.8453 21.3884 18.6179 20.998 18.1632C20.6726 17.7734 20.5588 17.2538 20.6564 16.6041C20.754 15.9545 21.0305 15.4348 21.4861 15.0451C21.8765 14.7203 22.332 14.5254 22.8526 14.4604ZM23.7311 15.5323C23.4057 15.2724 23.0478 15.3049 22.6574 15.6297C22.4622 15.8896 22.3971 16.052 22.4622 16.1169C22.5272 16.1819 22.7875 16.2144 23.243 16.2144H24.0239V15.922C23.9588 15.7272 23.8612 15.5972 23.7311 15.5323ZM35.8347 14.363C35.9648 14.363 36.2251 14.3955 36.6155 14.4604C36.8108 14.5254 36.7782 14.7852 36.5179 15.24C36.3227 15.5648 36.095 15.7272 35.8347 15.7272C35.5744 15.6622 35.3629 15.7596 35.2002 16.0195C35.0375 16.2793 34.8911 16.7828 34.761 17.5298C34.6308 18.2769 34.5657 18.6504 34.5657 18.6504C34.5657 18.7154 34.3054 18.7479 33.7849 18.7479H32.9064L33.1992 16.6041C33.2643 16.2793 33.3293 15.9383 33.3944 15.581C33.4595 15.2237 33.492 14.9476 33.492 14.7527C33.492 14.5579 33.492 14.4604 33.492 14.4604C33.5571 14.4604 33.8174 14.4604 34.2729 14.4604C34.6633 14.4604 34.8911 14.4604 34.9562 14.4604C35.0212 14.4604 35.0538 14.5579 35.0538 14.7527V14.9476L35.3466 14.7527C35.5418 14.5579 35.7045 14.4279 35.8347 14.363ZM38.2749 14.4604C39.5113 14.2006 40.3572 14.4604 40.8128 15.24C41.2683 15.8896 41.2683 16.6366 40.8128 17.4811C40.4874 18.1307 39.9993 18.553 39.3486 18.7479C39.0883 18.8128 38.7304 18.8453 38.2749 18.8453C37.8194 18.8453 37.494 18.8128 37.2988 18.7479C36.7132 18.488 36.3552 18.0333 36.2251 17.3837C36.095 16.7341 36.2251 16.1169 36.6155 15.5323C37.006 14.9476 37.5591 14.5903 38.2749 14.4604ZM39.251 15.7272C38.9907 15.4673 38.6979 15.4348 38.3725 15.6297C38.1122 15.7596 37.9333 16.0682 37.8357 16.5554C37.738 17.0426 37.8194 17.3837 38.0797 17.5786C38.34 17.8384 38.6328 17.8709 38.9582 17.676C39.2185 17.4811 39.3811 17.1563 39.4462 16.7016C39.5113 16.2469 39.4462 15.922 39.251 15.7272ZM21.8765 20.2095C21.8765 20.0146 21.909 19.9009 21.9741 19.8685C22.0392 19.836 23.2105 19.8197 25.488 19.8197H29.002V20.2095V20.5018H25.488H21.8765V20.2095ZM22.755 21.7686V21.3788H26.2689H29.6853V21.7686V22.1583H26.2689H22.755V21.7686Z" fill="#765B64"/>
</svg>
