<svg width="51" height="32" viewBox="0 0 51 32" fill="none" xmlns="http://www.w3.org/2000/svg">
<path d="M2.43825 0.102564C2.64143 0.0341873 10.3964 0 25.7032 0H48.6633L49.1713 0.307692C49.9841 0.649572 50.5259 1.19658 50.7968 1.94872C50.9323 2.2906 51 6.95726 51 15.9487C51 24.9402 50.9661 29.5726 50.8984 29.8462C50.6275 30.5983 50.1534 31.1795 49.4761 31.5897L48.8665 31.8974L25.7032 32C24.2131 32 22.2151 32 19.7092 32C10.7012 32 5.43526 31.9829 3.91135 31.9487C2.38745 31.9145 1.49004 31.7265 1.21912 31.3846C1.15139 31.3162 1.08367 31.2821 1.01594 31.2821C0.74502 31.0085 0.507968 30.7009 0.304781 30.359L0 29.8462V16.2051C0 7.04273 0.0677291 2.2906 0.203187 1.94872C0.609562 0.923077 1.35458 0.307692 2.43825 0.102564ZM19.3028 3.69231C17.8127 3.35043 16.2888 3.31624 14.7311 3.58974C12.3606 4 10.2779 4.99145 8.48307 6.5641C6.68825 8.13675 5.41833 10.0855 4.67331 12.4103C4.33466 13.5726 4.16534 14.8718 4.16534 16.3077C4.16534 18.906 4.87649 21.265 6.2988 23.3846C7.17928 24.7521 8.29681 25.9145 9.65139 26.8718C11.8187 28.3077 14.1723 29.0256 16.7122 29.0256C19.252 29.0256 21.6056 28.3077 23.7729 26.8718C24.3825 26.4615 24.6873 26.2393 24.6873 26.2051C24.6873 26.1709 24.4502 25.8803 23.9761 25.3333C23.1633 24.3761 22.5199 23.4188 22.0458 22.4615C21.504 21.2991 21.2331 20.5812 21.2331 20.3077C21.2331 20.2393 21.4024 20.2051 21.741 20.2051H22.249L22.4522 20.7179C22.994 22.2906 23.8068 23.6581 24.8904 24.8205L25.5 25.5385L26.008 25.0256C27.0239 24 27.8705 22.7009 28.5478 21.1282L28.8526 20.3077L29.3606 20.2051C29.6992 20.2051 29.8685 20.2564 29.8685 20.359C29.8685 20.4615 29.7331 20.8547 29.4622 21.5385C28.8526 22.9744 28.006 24.2735 26.9223 25.4359C26.5159 25.9145 26.3127 26.1538 26.3127 26.1538C26.3127 26.359 27.0916 26.8718 28.6494 27.6923C30.4104 28.5812 32.3068 29.0256 34.3386 29.0256C35.9641 29.0256 37.4542 28.7521 38.8088 28.2051C42.5339 26.7692 45.0398 24.1368 46.3267 20.3077C47.6135 16.4786 47.1733 12.8205 45.006 9.33333C44.1932 8.03419 43.1434 6.87179 41.8566 5.84615C40.5697 4.95726 39.249 4.30769 37.8944 3.89744C33.8307 2.80342 30.1733 3.4188 26.9223 5.74359L26.3127 6.25641L26.9223 6.87179C28.2092 8.37607 29.1235 9.91453 29.6653 11.4872C29.8008 11.9658 29.8685 12.2222 29.8685 12.2564C29.8685 12.2906 29.6992 12.3077 29.3606 12.3077C29.0219 12.3077 28.8526 12.2393 28.8526 12.1026C28.3108 10.4615 27.3964 8.95726 26.1096 7.58974L25.6016 6.87179L24.992 7.58974C23.8406 8.75214 22.9602 10.1538 22.3506 11.7949L22.249 12.3077H21.741C21.4024 12.3077 21.2331 12.2564 21.2331 12.1538C21.2331 12.0513 21.3685 11.6923 21.6394 11.0769C22.249 9.50427 23.0956 8.13675 24.1793 6.97436C24.5857 6.5641 24.755 6.32479 24.6873 6.25641C24.4841 5.91453 23.6713 5.40171 22.249 4.71795C21.4363 4.23932 20.4542 3.89744 19.3028 3.69231ZM20.7251 13.4359C20.7251 13.2991 20.9283 13.2308 21.3347 13.2308C21.6056 13.2308 21.7749 13.2479 21.8426 13.2821C21.9104 13.3162 21.9442 13.4017 21.9442 13.5385C21.8765 13.6068 21.8088 13.812 21.741 14.1538C21.741 14.359 21.741 14.4786 21.741 14.5128C21.741 14.547 21.8426 14.5641 22.0458 14.5641C22.249 14.5641 22.3167 14.7692 22.249 15.1795C22.1813 15.453 22.0458 15.5897 21.8426 15.5897H21.4363L21.2331 16.6154C21.0976 17.5726 21.1992 18.0513 21.5378 18.0513C21.741 18.1197 21.8426 18.2906 21.8426 18.5641C21.7749 18.9744 21.4701 19.1795 20.9283 19.1795C20.3187 19.1795 19.9462 18.9744 19.8108 18.5641C19.743 18.359 19.8785 17.4701 20.2171 15.8974C20.488 14.3932 20.6574 13.5726 20.7251 13.4359ZM31.2908 13.5385C32.239 13.0598 33.0857 13.1282 33.8307 13.7436L34.1355 13.9487L33.7291 14.359C33.4582 14.6325 33.2211 14.735 33.0179 14.6667C32.6116 14.5299 32.1713 14.5641 31.6972 14.7692C31.2231 15.0427 30.9183 15.453 30.7829 16C30.6474 16.6154 30.7829 17.1282 31.1892 17.5385C31.3924 17.812 31.6972 17.9145 32.1036 17.8462H32.8147L32.9163 18.2564C33.0518 18.5983 33.1195 18.8034 33.1195 18.8718C33.1195 19.1453 32.5777 19.2479 31.494 19.1795C30.749 19.1111 30.1733 18.8034 29.7669 18.2564C29.3606 17.7094 29.2251 17.0256 29.3606 16.2051C29.6315 14.906 30.2749 14.0171 31.2908 13.5385ZM44.3456 14.2051C44.3456 14.2051 44.371 14.0769 44.4218 13.8205C44.4726 13.5641 44.5149 13.4017 44.5488 13.3333C44.5827 13.265 44.8028 13.2308 45.2092 13.2308C45.5478 13.2308 45.7341 13.2479 45.7679 13.2821C45.8018 13.3162 45.8187 13.4017 45.8187 13.5385C45.1414 16.6838 44.8028 18.5641 44.8028 19.1795C44.8028 19.1795 44.5657 19.1795 44.0916 19.1795C43.6175 19.1795 43.3466 19.1282 43.2789 19.0256C43.2112 18.9231 43.0418 18.9402 42.7709 19.0769C41.8904 19.3504 41.2809 19.0769 40.9422 18.2564C40.6036 17.5043 40.6375 16.6838 41.0438 15.7949C41.4502 14.9744 42.0936 14.5641 42.9741 14.5641C43.4482 14.5641 43.753 14.6325 43.8884 14.7692C44.0239 14.906 44.1086 14.9744 44.1424 14.9744C44.1763 14.9744 44.244 14.7179 44.3456 14.2051ZM43.5837 15.7949C43.245 15.453 42.8725 15.4872 42.4661 15.8974C42.1952 16.2393 42.0428 16.5812 42.009 16.9231C41.9751 17.265 42.0598 17.5385 42.263 17.7436C42.4661 17.9487 42.7371 17.9829 43.0757 17.8462C43.3466 17.7094 43.5498 17.3675 43.6853 16.8205C43.8207 16.2735 43.7869 15.9316 43.5837 15.7949ZM5.79084 16.2051L6.2988 13.5385H7.31474H8.33068L8.43227 14.7692C8.5 15.5897 8.53386 16.1368 8.53386 16.4103L8.63546 16.9231L9.34661 15.2821C9.88845 14.188 10.1932 13.641 10.261 13.641C10.261 13.5726 10.5996 13.5726 11.2769 13.641H12.1912L11.7849 16.2051C11.4462 17.9145 11.26 18.8376 11.2261 18.9744C11.1922 19.1111 10.9721 19.1795 10.5657 19.1795C10.2271 19.1795 10.0239 19.1795 9.95618 19.1795C9.88845 19.1795 9.88845 19.1111 9.95618 18.9744C10.4303 16.7179 10.6335 15.5214 10.5657 15.3846C10.5657 15.3846 10.4811 15.5726 10.3118 15.9487C10.1424 16.3248 9.92231 16.7863 9.65139 17.3333L8.83865 19.1795H8.22908H7.61952L7.51793 17.4359C7.38247 16.2735 7.31474 15.6239 7.31474 15.4872L6.90837 16.7179C6.77291 17.7436 6.67131 18.3932 6.60359 18.6667L6.50199 19.1795H5.89243C5.48606 19.1795 5.28287 19.1282 5.28287 19.0256C5.28287 18.9231 5.45219 17.9829 5.79084 16.2051ZM13.004 14.5641C14.0199 14.359 14.7988 14.3932 15.3406 14.6667C15.747 14.8718 15.9841 15.1453 16.0518 15.4872C16.1195 15.8291 16.0687 16.4786 15.8994 17.4359C15.7301 18.3932 15.6116 18.9231 15.5438 19.0256C15.4761 19.1282 15.2729 19.1795 14.9343 19.1795C14.5956 19.1795 14.3924 19.1453 14.3247 19.0769C14.257 19.0085 14.1046 19.0085 13.8675 19.0769C13.6305 19.1453 13.3426 19.1795 13.004 19.1795C11.988 19.1111 11.6155 18.5983 11.8865 17.641C12.0896 16.7521 12.8008 16.2735 14.0199 16.2051C14.5618 16.1368 14.8327 16.0342 14.8327 15.8974C14.8327 15.8291 14.7819 15.7436 14.6803 15.641C14.5787 15.5385 14.1892 15.4872 13.512 15.4872C12.9701 15.5556 12.6653 15.5726 12.5976 15.5385C12.5299 15.5043 12.496 15.453 12.496 15.3846C12.496 14.906 12.6653 14.6325 13.004 14.5641ZM14.5279 17.4359C14.5279 17.2308 14.4602 17.1282 14.3247 17.1282C13.9861 17.0598 13.6813 17.1282 13.4104 17.3333C13.1394 17.5385 13.0548 17.7607 13.1564 18C13.258 18.2393 13.495 18.2906 13.8675 18.1538C14.24 18.0171 14.4602 17.7778 14.5279 17.4359ZM17.4741 14.6667C17.6773 14.5299 18.0837 14.4615 18.6932 14.4615C19.3028 14.4615 19.6414 14.4957 19.7092 14.5641C19.7092 14.6325 19.6753 14.8034 19.6076 15.0769L19.506 15.4872H18.8964C18.2869 15.4872 17.9651 15.5726 17.9313 15.7436C17.8974 15.9145 18.1175 16.1368 18.5916 16.4103C19.2689 16.8205 19.5737 17.2991 19.506 17.8462C19.4382 18.3932 19.1673 18.7692 18.6932 18.9744C18.3546 19.1795 17.8466 19.2479 17.1693 19.1795C16.492 19.1795 16.1195 19.1453 16.0518 19.0769C16.0518 19.0769 16.0518 18.906 16.0518 18.5641L16.1534 18.1538H17.0677C17.8805 18.2222 18.2869 18.0855 18.2869 17.7436C18.2869 17.6752 18.0159 17.5043 17.4741 17.2308C16.8645 16.8205 16.5598 16.4103 16.5598 16C16.5598 15.3162 16.8645 14.8718 17.4741 14.6667ZM23.6713 14.5641C24.3486 14.2906 24.992 14.359 25.6016 14.7692C26.2789 15.1795 26.4821 15.8632 26.2112 16.8205C26.2112 17.0256 25.7371 17.1282 24.7888 17.1282H23.4681V17.3333C23.4681 17.9487 24.0438 18.2222 25.1952 18.1538L26.008 18.0513V18.4615C25.9402 18.735 25.8556 18.9231 25.754 19.0256C25.6524 19.1282 25.3137 19.1795 24.738 19.1795C24.1624 19.1795 23.739 19.1453 23.4681 19.0769C22.4522 18.8034 22.012 18.0513 22.1474 16.8205C22.2829 15.6581 22.7908 14.906 23.6713 14.5641ZM24.8904 15.5897C24.755 15.3846 24.5518 15.3162 24.2809 15.3846C24.01 15.453 23.8068 15.5897 23.6713 15.7949C23.5359 16 23.502 16.1368 23.5697 16.2051C23.6375 16.2735 23.8745 16.3077 24.2809 16.3077H25.0936V16C25.0936 15.7949 25.0259 15.6581 24.8904 15.5897ZM34.5418 14.5641C34.8128 14.4957 35.2191 14.4615 35.761 14.4615C36.9124 14.4615 37.5558 14.906 37.6912 15.7949C37.8267 16.1368 37.6574 17.1966 37.1833 18.9744C37.1833 19.1111 36.997 19.1795 36.6245 19.1795C36.252 19.1795 36.0319 19.1453 35.9641 19.0769C35.8964 19.0085 35.761 19.0085 35.5578 19.0769C34.9482 19.3504 34.4064 19.3504 33.9323 19.0769C33.5936 18.8034 33.4243 18.4274 33.4243 17.9487C33.4243 17.4701 33.6106 17.0598 33.9831 16.7179C34.3556 16.3761 34.9482 16.2051 35.761 16.2051C36.1673 16.2051 36.3705 16.1026 36.3705 15.8974C36.3705 15.5556 35.9303 15.4188 35.0498 15.4872C34.5757 15.5556 34.3048 15.5726 34.2371 15.5385C34.1693 15.5043 34.1355 15.453 34.1355 15.3846C34.1355 14.906 34.2709 14.6325 34.5418 14.5641ZM36.1673 17.4359C36.1673 17.2308 36.0996 17.094 35.9641 17.0256C35.2869 16.9573 34.8805 17.1624 34.745 17.641C34.6773 17.9829 34.8466 18.1538 35.253 18.1538C35.7271 18.1538 36.0319 17.9145 36.1673 17.4359ZM38.504 14.6667C38.5717 14.5299 38.7749 14.4615 39.1135 14.4615C39.4522 14.4615 39.6384 14.5299 39.6723 14.6667C39.7062 14.8034 39.8924 14.8034 40.2311 14.6667C40.7052 14.5299 40.9422 14.5299 40.9422 14.6667C40.9422 14.735 40.8745 14.9402 40.739 15.2821C40.6713 15.5556 40.6036 15.6923 40.5359 15.6923C40.1295 15.6923 39.8247 15.9316 39.6215 16.4103C39.4861 16.6838 39.3506 17.2308 39.2151 18.0513L38.9104 19.1795H38.3008C38.0299 19.1795 37.8606 19.1795 37.7928 19.1795C37.7251 19.1795 37.6912 19.1111 37.6912 18.9744C37.759 18.8376 37.8944 18.1197 38.0976 16.8205C38.3685 15.453 38.504 14.735 38.504 14.6667ZM26.7191 16.8205C26.7191 16.8205 26.7869 16.4615 26.9223 15.7436C27.0578 15.0256 27.1255 14.6496 27.1255 14.6154C27.1255 14.5812 27.3118 14.5641 27.6843 14.5641C28.0568 14.5641 28.26 14.6325 28.2938 14.7692C28.3277 14.906 28.4462 14.906 28.6494 14.7692C28.7171 14.7009 28.8187 14.6496 28.9542 14.6154C29.0896 14.5812 29.2082 14.5641 29.3098 14.5641C29.4114 14.5641 29.4622 14.5812 29.4622 14.6154C29.4622 14.6496 29.4114 14.8547 29.3098 15.2308C29.2082 15.6068 29.0896 15.7949 28.9542 15.7949C28.4124 15.7949 28.0398 16.4444 27.8367 17.7436C27.6335 18.5641 27.5149 19.0085 27.4811 19.0769C27.4472 19.1453 27.261 19.1795 26.9223 19.1795C26.5159 19.1795 26.3127 19.1453 26.3127 19.0769C26.3127 19.0085 26.4482 18.2564 26.7191 16.8205Z" fill="#765B64"/>
</svg>
