<svg width="115" height="101" viewBox="0 0 115 101" fill="none" xmlns="http://www.w3.org/2000/svg">
<path d="M113.627 28.0308C114.673 28.6241 115.121 29.069 114.972 29.3656C114.822 29.6623 114.225 29.8106 113.178 29.8106L62.2798 37.3745V37.5969V43.3811C62.2798 44.2709 61.8314 44.8642 60.9345 45.1608V94.9934C61.2335 95.1417 61.383 95.3642 61.383 95.6608V100.333C61.383 100.778 61.1587 101 60.7103 101H53.9836C53.5352 101 53.311 100.778 53.311 100.333V95.6608C53.311 95.3642 53.4605 95.1417 53.7594 94.9934V45.1608C52.8625 44.8642 52.4141 44.2709 52.4141 43.3811V37.5969V37.3745L1.29152 29.8106C-0.502257 29.6623 -0.427516 29.069 1.51574 28.0308L54.2079 0.88987C56.4501 -0.296623 58.6923 -0.296623 60.9345 0.88987L113.627 28.0308ZM52.8625 36.4846L43.6694 29.8106H8.01817L52.8625 36.4846ZM53.5352 35.8172C53.8342 35.6689 54.1331 35.5947 54.4321 35.5947H57.1227V29.8106H45.239L53.5352 35.8172ZM61.383 36.0396L69.9034 29.8106H58.0196V35.5947H60.2619C60.7103 35.5947 61.084 35.743 61.383 36.0396ZM62.5041 36.4846L106.676 29.8106H71.6972L62.5041 36.4846ZM108.245 62.2908C109.292 62.7357 109.665 63.4772 109.366 64.5154L103.761 82.3128C103.462 83.0543 102.864 83.4993 101.967 83.6476C101.967 83.6476 101.892 83.6476 101.743 83.6476H81.5629C80.3671 83.6476 79.7691 83.0543 79.7691 81.8678V81.4229C79.7691 80.2364 80.3671 79.6432 81.5629 79.6432H100.398L105.555 63.4031C106.003 62.2166 106.751 61.8458 107.797 62.2908H108.245ZM80.8903 93.8811V84.0925H84.702V93.8811V94.1035V95.6608C84.702 96.8473 84.1041 97.4405 82.9083 97.4405H82.684C81.4882 97.4405 80.8903 96.8473 80.8903 95.6608V94.1035V93.8811ZM107.124 93.4361L107.348 94.7709C107.647 95.9574 107.199 96.699 106.003 96.9956L105.779 97.2181C104.583 97.5147 103.836 97.0698 103.537 95.8833L103.088 94.5485V94.1035L100.622 84.7599H101.743C101.892 84.7599 102.042 84.7599 102.191 84.7599C103.088 84.7599 103.836 84.3891 104.434 83.6476L106.9 93.2137L107.124 93.4361ZM34.4763 80.978C35.6722 80.978 36.2701 81.5712 36.2701 82.7577V82.9802C36.2701 84.1667 35.6722 84.7599 34.4763 84.7599H14.5206C14.3711 84.7599 14.2216 84.7599 14.0722 84.7599C13.1753 84.7599 12.6521 84.3891 12.5026 83.6476L6.67284 65.8502C6.37388 64.6637 6.82232 63.9222 8.01817 63.6256L8.24239 63.4031C9.43824 63.1065 10.1856 63.5514 10.4846 64.7379L15.8659 80.978H34.4763ZM31.3372 95.2159V85.2048H35.3732V95.2159V95.4383V96.7731C35.3732 97.9596 34.7753 98.5529 33.5795 98.5529H33.131C31.9352 98.5529 31.3372 97.9596 31.3372 96.7731V95.4383V95.2159ZM13.8479 86.0947C13.9974 86.0947 14.2216 86.0947 14.5206 86.0947H15.6417L12.9511 95.4383V95.6608L12.5026 96.9956C12.2036 98.1821 11.4562 98.627 10.2604 98.3304H10.0362C8.84032 98.0338 8.39187 97.2922 8.69084 96.1057L9.13928 94.5485V94.326L11.8299 84.7599C12.4279 85.5015 13.1005 85.9464 13.8479 86.0947Z" fill="#D03970"/>
</svg>
