<svg width="100" height="101" viewBox="0 0 100 101" fill="none" xmlns="http://www.w3.org/2000/svg">
<path d="M34.9802 39.2442C30.1054 36.6135 26.6798 31.6151 24.7036 24.2492C24.0448 21.4869 23.7154 18.6589 23.7154 15.7651C23.7154 15.7651 23.7154 15.6994 23.7154 15.5678C23.7154 15.4363 23.7154 15.3705 23.7154 15.3705C23.7154 12.7398 24.0448 10.1749 24.7036 7.67572C25.2306 5.70269 26.2846 3.99273 27.8656 2.54585C28.6561 1.23049 30.2042 0.408394 32.5099 0.0795517C34.8155 -0.249283 37.0224 0.441277 39.1304 2.15124C41.502 4.78194 43.6759 8.07032 45.6522 12.0164C47.6285 15.9624 48.5507 19.777 48.419 23.46C48.2872 27.9322 46.805 32.1084 43.9723 35.9887C41.1397 39.869 38.1423 40.9541 34.9802 39.2442ZM62.6482 41.2172C58.8274 40.1649 56.357 37.5342 55.2372 33.3251C54.1173 29.116 53.8867 24.3807 54.5455 19.1193C54.9407 16.4886 56.0277 13.9236 57.8063 11.4245C59.585 8.9253 61.2648 7.08381 62.8458 5.89999L65.2174 4.32157C70.224 1.29626 74.1107 1.55933 76.8775 5.11078C78.3267 6.95227 79.2819 9.25414 79.7431 12.0164C80.2042 14.7786 80.303 17.4093 80.0395 19.9085C79.3808 23.0653 78.3267 26.0907 76.8775 28.9844C75.0329 32.9305 72.8261 36.1531 70.2569 38.6523C67.6877 41.1514 65.1515 42.0064 62.6482 41.2172ZM85.3755 38.2577C90.1186 35.627 93.7418 35.5283 96.2451 37.9617C98.7484 40.3951 100 44.3083 100 49.7012C100 54.568 98.1555 59.2375 94.4664 63.7097C90.7773 68.1819 87.0224 70.418 83.2016 70.418C83.0698 70.418 82.9381 70.418 82.8063 70.418C80.5665 70.418 78.5902 69.6288 76.8775 68.0504C74.2424 65.5512 73.1884 61.2106 73.7154 55.0284C74.1107 52.1346 75.1647 49.4382 76.8775 46.939C79.249 43.5191 82.0817 40.6253 85.3755 38.2577ZM24.7036 58.9745C23.6495 61.3421 21.2121 62.8548 17.3913 63.5124C13.9657 64.0386 10.8366 63.0192 8.00395 60.4543C5.17128 57.8893 2.89855 54.5023 1.18577 50.2931C0.395257 48.1886 0 45.7881 0 43.0916C0 40.3951 0.461133 37.8631 1.3834 35.4954C2.30567 33.1278 3.88669 31.4836 6.12648 30.5629C8.36627 29.6421 11.3307 29.9709 15.0198 31.5494C19.6311 35.2324 22.859 39.8361 24.7036 45.3606C25.0988 46.4129 25.3623 47.4651 25.4941 48.5174C26.1528 53.2527 25.8893 56.7384 24.7036 58.9745ZM76.8775 78.5075C77.9315 80.4805 78.7879 82.5193 79.4466 84.6239C81.0277 89.7537 80.1713 93.634 76.8775 96.2647C72.6614 99.5531 66.7984 99.6846 59.2885 96.6593C56.917 95.7386 54.5125 95.2124 52.0751 95.0809C49.6377 94.9494 47.2991 95.1138 45.0593 95.5742C42.8195 96.0345 40.7444 96.5936 38.834 97.2512C36.9236 97.9089 34.9473 98.5995 32.9051 99.3229C30.863 100.046 29.249 100.54 28.0632 100.803C27.2727 100.934 26.4822 101 25.6917 101C25.4282 101 25.0988 101 24.7036 101C22.4638 100.868 20.5534 100.112 18.9723 98.731C17.3913 97.3499 16.3373 95.2782 15.8103 92.516C15.2833 89.7537 15.8762 86.3996 17.5889 82.4535C19.4335 78.2444 21.805 74.3641 24.7036 70.8127C30.1054 64.499 36.166 58.8429 42.8854 53.8446C44.9934 51.6085 47.6943 50.6549 50.9881 50.9837C54.2819 51.3125 57.1146 52.595 59.4862 54.8311C66.6008 61.671 72.3979 69.5631 76.8775 78.5075Z" fill="#D03970"/>
</svg>
