<svg width="82" height="101" viewBox="0 0 82 101" fill="none" xmlns="http://www.w3.org/2000/svg">
<path d="M75.4676 30.9707L81.9672 97.252C82.0985 98.304 81.8359 99.1917 81.1793 99.915C80.5228 100.638 79.6693 101 78.6189 101H3.38111C2.33066 101 1.47718 100.638 0.820657 99.915C0.164131 99.1917 -0.0984788 98.304 0.0328263 97.252L6.53243 30.9707C6.53243 30.3132 6.86069 29.7214 7.51721 29.1953C8.17374 28.6693 8.96157 28.4062 9.88071 28.4062H16.1833C15.9207 30.5104 15.7894 32.6146 15.7894 34.7188C15.7894 34.9818 15.8551 35.2777 15.9864 35.6064C16.1177 35.9352 16.5773 36.3955 17.3651 36.9873C18.1529 37.5791 19.1377 37.875 20.3195 37.875C21.6325 37.875 22.7158 37.612 23.5693 37.0859C24.4227 36.5599 24.9151 36.0339 25.0464 35.5078L25.2434 34.7188C25.2434 32.6146 25.3747 30.5104 25.6373 28.4062H56.3627C56.6253 30.5104 56.7566 32.6146 56.7566 34.7188C56.7566 34.9818 56.8223 35.2777 56.9536 35.6064C57.0849 35.9352 57.5444 36.3955 58.3323 36.9873C59.1201 37.5791 60.1705 37.875 61.4836 37.875C62.7966 37.875 63.8471 37.612 64.6349 37.0859C65.4227 36.5599 65.8823 36.0339 66.0136 35.5078L66.2106 34.7188C66.2106 32.6146 66.0793 30.5104 65.8167 28.4062H72.1193C73.0384 28.4062 73.8263 28.6693 74.4828 29.1953C75.1393 29.7214 75.4676 30.3132 75.4676 30.9707ZM20.3195 34.7188C19.269 34.7188 18.8094 34.1927 18.9408 33.1406C19.2034 23.9349 21.4684 16.11 25.7358 9.66602C30.0032 3.222 35.0913 0 41 0C46.9087 0 51.9968 3.222 56.2642 9.66602C60.5316 16.11 62.7966 23.9349 63.0592 33.1406C63.0592 34.1927 62.4684 34.7188 61.2866 34.7188C60.2362 34.7188 59.7766 34.2585 59.9079 33.3379C59.6453 24.9212 57.6757 17.7868 53.9992 11.9346C50.3227 6.08236 45.9896 3.15625 41 3.15625C36.0104 3.15625 31.6773 6.04948 28.0008 11.8359C24.3243 17.6224 22.3547 24.6582 22.0921 32.9434C22.0921 34.127 21.5012 34.7188 20.3195 34.7188Z" fill="#D03970"/>
</svg>
