<svg width="36" height="26" viewBox="0 0 36 26" fill="none" xmlns="http://www.w3.org/2000/svg">
<path d="M36 20.8978C36 22.2957 35.4961 23.4955 34.4883 24.4973C33.4805 25.4991 32.25 26 30.7969 26H5.20312C3.75 26 2.51953 25.4991 1.51172 24.4973C0.503906 23.4955 0 22.2957 0 20.8978V5.10215C0 3.7043 0.503906 2.50448 1.51172 1.50269C2.51953 0.500898 3.75 0 5.20312 0H30.7969C32.25 0 33.4805 0.500898 34.4883 1.50269C35.4961 2.50448 36 3.7043 36 5.10215V20.8978ZM15.6094 8.87634L14.2734 17.0538H16.3828L17.7188 8.87634H15.6094ZM22.0078 12.2312C21.2109 11.8584 20.8125 11.5323 20.8125 11.2527C20.8125 10.7867 21.2109 10.5538 22.0078 10.5538C22.5234 10.5538 23.0391 10.6703 23.5547 10.9032L23.7656 10.9731L24.0469 9.22581C23.4844 9.03943 22.8516 8.94624 22.1484 8.94624C21.1172 8.94624 20.2617 9.17921 19.582 9.64516C18.9023 10.1111 18.5625 10.7401 18.5625 11.5323C18.5625 12.371 19.1953 13.0932 20.4609 13.6989C21.1641 14.0251 21.5156 14.3513 21.5156 14.6774C21.5156 15.19 21.0938 15.4462 20.25 15.4462C19.5938 15.4462 18.9375 15.3065 18.2812 15.0269L18 14.8871L17.7188 16.7043C18.3281 16.9373 19.1016 17.0771 20.0391 17.1237C21.1641 17.1237 22.0664 16.879 22.7461 16.3898C23.4258 15.9005 23.7656 15.2366 23.7656 14.3979C23.7656 13.5125 23.1797 12.7903 22.0078 12.2312ZM29.4609 8.94624H27.8437C27.2812 8.94624 26.9062 9.15591 26.7188 9.57527L23.625 17.0538H25.8047L26.4375 15.4462H28.8984L29.25 17.1237H31.1484L29.4609 8.94624ZM27.0703 13.8387L27.9141 11.1828L28.5469 13.8387H27.0703ZM12.5156 8.87634L10.4062 14.4677L10.1953 13.3495C10.0078 12.7437 9.64453 12.1263 9.10547 11.4973C8.56641 10.8683 7.96875 10.3907 7.3125 10.0645L9.21094 17.0538H11.3906L14.7656 8.87634H12.5156ZM9.49219 9.92473C9.30469 9.2724 8.85937 8.92294 8.15625 8.87634H4.85156V9.08602C6.07031 9.36559 7.18359 9.92473 8.19141 10.7634C9.19922 11.6022 9.86719 12.4875 10.1953 13.4194L9.49219 9.92473Z" fill="#765B64"/>
</svg>
